<svg id="visual" viewBox="0 0 980 120" width="980" height="120" xmlns="http://www.w3.org/2000/svg" xmlns:xlink="http://www.w3.org/1999/xlink" version="1.1"><rect x="0" y="0" width="980" height="120" fill="#111111"></rect><path d="M0 107L61 107L61 84L123 84L123 68L184 68L184 92L245 92L245 102L306 102L306 63L368 63L368 85L429 85L429 87L490 87L490 79L551 79L551 86L613 86L613 106L674 106L674 107L735 107L735 68L796 68L796 79L858 79L858 102L919 102L919 106L980 106L980 63L980 0L980 0L919 0L919 0L858 0L858 0L796 0L796 0L735 0L735 0L674 0L674 0L613 0L613 0L551 0L551 0L490 0L490 0L429 0L429 0L368 0L368 0L306 0L306 0L245 0L245 0L184 0L184 0L123 0L123 0L61 0L61 0L0 0Z" fill="#fea381"></path><path d="M0 76L61 76L61 58L123 58L123 72L184 72L184 53L245 53L245 53L306 53L306 66L368 66L368 52L429 52L429 54L490 54L490 46L551 46L551 36L613 36L613 41L674 41L674 44L735 44L735 66L796 66L796 66L858 66L858 67L919 67L919 39L980 39L980 70L980 0L980 0L919 0L919 0L858 0L858 0L796 0L796 0L735 0L735 0L674 0L674 0L613 0L613 0L551 0L551 0L490 0L490 0L429 0L429 0L368 0L368 0L306 0L306 0L245 0L245 0L184 0L184 0L123 0L123 0L61 0L61 0L0 0Z" fill="#f4794a"></path><path d="M0 45L61 45L61 45L123 45L123 15L184 15L184 26L245 26L245 23L306 23L306 41L368 41L368 10L429 10L429 42L490 42L490 16L551 16L551 40L613 40L613 22L674 22L674 14L735 14L735 22L796 22L796 40L858 40L858 30L919 30L919 44L980 44L980 49L980 0L980 0L919 0L919 0L858 0L858 0L796 0L796 0L735 0L735 0L674 0L674 0L613 0L613 0L551 0L551 0L490 0L490 0L429 0L429 0L368 0L368 0L306 0L306 0L245 0L245 0L184 0L184 0L123 0L123 0L61 0L61 0L0 0Z" fill="#b85633"></path></svg>