<svg id="visual" viewBox="0 0 980 550" width="980" height="550" xmlns="http://www.w3.org/2000/svg" xmlns:xlink="http://www.w3.org/1999/xlink" version="1.1"><rect x="0" y="0" width="980" height="550" fill="#111111"></rect><path d="M0 302L61 302L61 354L123 354L123 391L184 391L184 336L245 336L245 313L306 313L306 401L368 401L368 351L429 351L429 347L490 347L490 366L551 366L551 350L613 350L613 303L674 303L674 302L735 302L735 391L796 391L796 366L858 366L858 312L919 312L919 304L980 304L980 402L980 551L980 551L919 551L919 551L858 551L858 551L796 551L796 551L735 551L735 551L674 551L674 551L613 551L613 551L551 551L551 551L490 551L490 551L429 551L429 551L368 551L368 551L306 551L306 551L245 551L245 551L184 551L184 551L123 551L123 551L61 551L61 551L0 551Z" fill="#fea381"></path><path d="M0 373L61 373L61 414L123 414L123 383L184 383L184 426L245 426L245 424L306 424L306 396L368 396L368 428L429 428L429 423L490 423L490 442L551 442L551 464L613 464L613 452L674 452L674 445L735 445L735 396L796 396L796 396L858 396L858 392L919 392L919 458L980 458L980 386L980 551L980 551L919 551L919 551L858 551L858 551L796 551L796 551L735 551L735 551L674 551L674 551L613 551L613 551L551 551L551 551L490 551L490 551L429 551L429 551L368 551L368 551L306 551L306 551L245 551L245 551L184 551L184 551L123 551L123 551L61 551L61 551L0 551Z" fill="#f4794a"></path><path d="M0 443L61 443L61 444L123 444L123 512L184 512L184 488L245 488L245 494L306 494L306 452L368 452L368 525L429 525L429 450L490 450L490 509L551 509L551 456L613 456L613 497L674 497L674 515L735 515L735 497L796 497L796 454L858 454L858 478L919 478L919 446L980 446L980 434L980 551L980 551L919 551L919 551L858 551L858 551L796 551L796 551L735 551L735 551L674 551L674 551L613 551L613 551L551 551L551 551L490 551L490 551L429 551L429 551L368 551L368 551L306 551L306 551L245 551L245 551L184 551L184 551L123 551L123 551L61 551L61 551L0 551Z" fill="#b85633"></path></svg>