<svg id="visual" viewBox="0 0 980 550" width="980" height="550" xmlns="http://www.w3.org/2000/svg" xmlns:xlink="http://www.w3.org/1999/xlink" version="1.1"><rect x="0" y="0" width="980" height="550" fill="#111111"></rect><path d="M453 550L564 550L564 516L643 516L643 481L526 481L526 447L476 447L476 413L665 413L665 378L558 378L558 344L550 344L550 309L589 309L589 275L554 275L554 241L456 241L456 206L454 206L454 172L644 172L644 138L590 138L590 103L475 103L475 69L458 69L458 34L666 34L666 0L980 0L980 34L980 34L980 69L980 69L980 103L980 103L980 138L980 138L980 172L980 172L980 206L980 206L980 241L980 241L980 275L980 275L980 309L980 309L980 344L980 344L980 378L980 378L980 413L980 413L980 447L980 447L980 481L980 481L980 516L980 516L980 550L980 550Z" fill="#fea381"></path><path d="M605 550L692 550L692 516L626 516L626 481L718 481L718 447L714 447L714 413L654 413L654 378L722 378L722 344L711 344L711 309L753 309L753 275L799 275L799 241L775 241L775 206L759 206L759 172L654 172L654 138L654 138L654 103L646 103L646 69L787 69L787 34L633 34L633 0L980 0L980 34L980 34L980 69L980 69L980 103L980 103L980 138L980 138L980 172L980 172L980 206L980 206L980 241L980 241L980 275L980 275L980 309L980 309L980 344L980 344L980 378L980 378L980 413L980 413L980 447L980 447L980 481L980 481L980 516L980 516L980 550L980 550Z" fill="#f4794a"></path><path d="M754 550L757 550L757 516L901 516L901 481L850 481L850 447L864 447L864 413L773 413L773 378L929 378L929 344L769 344L769 309L896 309L896 275L782 275L782 241L870 241L870 206L908 206L908 172L870 172L870 138L778 138L778 103L829 103L829 69L760 69L760 34L736 34L736 0L980 0L980 34L980 34L980 69L980 69L980 103L980 103L980 138L980 138L980 172L980 172L980 206L980 206L980 241L980 241L980 275L980 275L980 309L980 309L980 344L980 344L980 378L980 378L980 413L980 413L980 447L980 447L980 481L980 481L980 516L980 516L980 550L980 550Z" fill="#b85633"></path></svg>